<svg width="32" height="32" xmlns="http://www.w3.org/2000/svg"><g fill="none" fill-rule="evenodd"><path d="M0 0h32v32H0z"/><path d="M18 12a2 2 0 11-4 0 2 2 0 014 0z" stroke="#9CA6B0" stroke-width="2" stroke-linecap="round" stroke-linejoin="round"/><path d="M16 27s7-9 7-14-3.41-7-7-7-7 2-7 7 7 14 7 14z" stroke="#9CA6B0" stroke-width="2" stroke-linecap="round" stroke-linejoin="round"/><path d="M16 1c8.284 0 15 6.716 15 15 0 8.284-6.716 15-15 15-8.284 0-15-6.716-15-15C1 7.716 7.716 1 16 1z" stroke="#9CA6B0" stroke-width="2" stroke-linecap="round" stroke-linejoin="round"/></g></svg>