<svg width="32" height="32" xmlns="http://www.w3.org/2000/svg"><g fill="none" fill-rule="evenodd"><path d="M0 0h32v32H0z"/><path d="M0 0h32v32H0z"/><path d="M16 1c8.284 0 15 6.716 15 15 0 8.284-6.716 15-15 15-8.284 0-15-6.716-15-15C1 7.716 7.716 1 16 1z" stroke="#9CA6B0" stroke-width="2" stroke-linecap="round" stroke-linejoin="round"/><path d="M26 27c-.229-.454-1.32-1.447-4.5-2.5-3.161-1.072-3.088-1.236-2.5-2.5.588-1.283 4-3.353 4-9 0-5.667-3.269-8-7-8-3.73 0-7 2.333-7 8s2.912 7.717 3.5 9c.588 1.283.161 1.447-3 2.5C6.339 25.572 6 27 6 27" stroke="#9CA6B0" stroke-width="2" stroke-linecap="round" stroke-linejoin="round"/></g></svg>