<svg width="32" height="32" xmlns="http://www.w3.org/2000/svg"><g fill="none" fill-rule="evenodd"><path d="M0 0h32v32H0z"/><path d="M16 1c8.284 0 15 6.716 15 15 0 8.284-6.716 15-15 15-8.284 0-15-6.716-15-15C1 7.716 7.716 1 16 1z" stroke="#9CA6B0" stroke-width="2" stroke-linecap="round" stroke-linejoin="round"/><path stroke="#9CA6B0" stroke-width="2" stroke-linecap="round" stroke-linejoin="round" d="M26 27V10H6v17m15-15V8m-11 4V8m0 16h2m-2-4h2m-2-4h2m3 8h2m-2-4h2m-2-4h2m3 8h2m-2-4h2m-2-4h2"/></g></svg>